# xmcd CD database file
#
# Track frame offsets:
#	150
#	23400
#	48920
#	69373
#	93193
#	120730
#	137335
#	160395
#
# Disc length: 2435 seconds
#
# Revision: 4
# Processed by: cddbd v1.5PL3 Copyright (c) Steve Scherf et al.
# Submitted via: CDex 1.51
#
DISCID=58098108
DTITLE=LOUDNESS - The Birhtday Eve〜誕生前夜〜
DYEAR=1981
DGENRE=Metal
TTITLE0=Loudness
TTITLE1=Sexy Woman
TTITLE2=Open Your Eyes
TTITLE3=Street Woman
TTITLE4=To Be Demon
TTITLE5=I'm On Fire
TTITLE6=High Try
TTITLE7=Rock Shock (More And More)
EXTD=YEAR: 1981
EXTT0=
EXTT1=
EXTT2=
EXTT3=
EXTT4=
EXTT5=
EXTT6=
EXTT7=
PLAYORDER=
